<?xml version="1.0" standalone="no"?>
<!DOCTYPE svg PUBLIC "-//W3C//DTD SVG 20010904//EN"
 "http://www.w3.org/TR/2001/REC-SVG-20010904/DTD/svg10.dtd">
<svg version="1.0" xmlns="http://www.w3.org/2000/svg"
 width="328.000000pt" height="344.000000pt" viewBox="0 0 328.000000 344.000000"
 preserveAspectRatio="xMidYMid meet">
<metadata>
Created by potrace 1.11, written by Peter Selinger 2001-2013
</metadata>
<g transform="translate(0.000000,344.000000) scale(0.100000,-0.100000)"
fill="#000000" stroke="none">
<path d="M1300 3433 c-413 -45 -741 -218 -984 -520 -25 -32 -50 -62 -54 -68
-19 -23 -100 -164 -121 -209 -56 -120 -104 -277 -116 -375 -4 -30 -9 -63 -11
-75 -6 -26 -6 -274 0 -301 2 -11 7 -40 10 -65 38 -278 180 -555 396 -771 198
-198 430 -323 715 -384 90 -20 371 -29 445 -15 25 4 61 10 80 13 103 14 299
82 398 138 l52 29 18 -21 c9 -12 28 -33 42 -48 14 -16 54 -61 90 -101 36 -40
76 -85 90 -100 33 -36 159 -175 212 -236 24 -26 61 -67 83 -90 22 -24 73 -80
114 -124 41 -44 80 -80 87 -80 7 0 14 -5 16 -11 3 -10 97 -16 128 -7 26 7 73
41 134 98 102 95 118 112 133 147 17 42 20 126 4 131 -6 2 -9 7 -6 12 7 11
-56 88 -172 209 -29 30 -53 56 -53 58 0 3 -6 10 -12 17 -7 7 -51 55 -98 106
-47 51 -103 113 -125 136 -22 24 -69 76 -105 115 -36 39 -84 92 -107 118 -23
25 -42 50 -43 54 0 5 10 23 22 40 104 145 202 394 223 567 4 30 9 64 12 75 6
26 5 253 -1 291 -2 16 -10 63 -16 104 -26 159 -114 378 -211 522 -227 339
-581 557 -994 614 -52 7 -231 11 -275 7z m286 -294 c32 -5 97 -22 144 -36 69
-20 86 -29 86 -44 0 -10 -4 -19 -8 -19 -12 0 -68 -58 -68 -70 0 -6 -4 -8 -10
-5 -5 3 -10 1 -10 -6 0 -10 -3 -10 -12 0 -10 11 -10 14 0 18 26 10 10 29 -35
41 -81 22 -93 19 -148 -41 -27 -30 -60 -60 -73 -67 -17 -8 -22 -18 -20 -38 3
-23 8 -27 36 -27 27 0 37 -6 49 -28 13 -26 16 -27 32 -13 10 9 18 33 19 58 3
51 22 98 39 98 15 0 17 -16 3 -25 -11 -7 -9 -33 3 -52 4 -7 20 -11 35 -9 15 2
19 1 9 -1 -11 -3 -16 -10 -13 -18 2 -7 -1 -16 -9 -19 -7 -2 -15 -15 -17 -28
-3 -25 -44 -38 -97 -30 -30 4 -32 6 -25 36 4 23 3 28 -5 20 -7 -6 -13 -21 -14
-34 -1 -13 -11 -27 -27 -33 -14 -6 -47 -26 -74 -44 -26 -18 -56 -33 -65 -33
-28 0 -31 -10 -10 -31 11 -11 17 -29 15 -41 -3 -19 -9 -23 -37 -22 -19 0 -45
2 -58 5 -21 3 -26 -1 -34 -31 -5 -19 -13 -37 -17 -40 -14 -9 1 -62 16 -56 8 3
14 -1 14 -9 0 -11 8 -13 33 -9 49 9 71 22 85 54 7 15 23 31 36 34 13 3 26 15
29 25 3 15 11 18 27 14 12 -3 32 0 46 7 21 12 27 11 43 -6 10 -10 35 -34 56
-53 35 -32 37 -35 20 -47 -10 -7 -21 -11 -26 -9 -4 3 -10 1 -14 -5 -3 -5 -2
-10 4 -10 5 0 16 -3 25 -6 9 -3 16 -1 16 6 0 6 7 18 15 27 8 8 12 20 8 26 -4
7 0 8 12 3 31 -11 -1 20 -34 34 -24 10 -58 56 -49 66 8 7 95 -59 109 -84 20
-34 54 -41 62 -13 3 13 13 21 27 21 11 0 19 -4 15 -9 -3 -5 -1 -12 5 -16 6 -4
8 -10 5 -15 -3 -5 5 -16 18 -25 24 -15 84 -16 118 -1 14 6 18 -1 23 -39 5 -31
3 -51 -5 -61 -15 -18 -130 -18 -182 1 -38 13 -39 13 -55 -16 -20 -33 -43 -37
-80 -10 -15 10 -44 24 -64 31 -28 10 -35 17 -29 28 17 31 0 54 -39 54 -39 0
-166 -15 -183 -21 -13 -5 -35 -7 -49 -4 -30 6 -94 -38 -104 -72 -9 -30 -35
-55 -55 -55 -20 0 -58 -36 -96 -92 -18 -26 -23 -45 -20 -67 3 -18 -2 -56 -10
-86 -15 -52 -15 -58 7 -127 22 -70 61 -126 102 -149 10 -5 37 -12 60 -15 24
-3 56 -9 71 -14 21 -7 43 -5 85 10 72 26 80 25 94 -6 10 -20 18 -25 44 -22 44
3 62 -14 56 -54 -2 -18 -9 -39 -14 -45 -7 -9 -1 -22 21 -43 34 -35 55 -69 70
-118 9 -28 7 -38 -9 -60 -27 -38 -34 -76 -18 -93 32 -33 57 -78 54 -96 -3 -11
9 -40 25 -64 16 -24 29 -49 29 -56 0 -6 8 -14 18 -17 29 -9 149 20 184 45 39
28 77 70 78 85 0 6 11 17 25 24 16 8 29 28 35 52 6 20 22 46 36 55 79 57 85
66 85 123 0 53 -8 106 -16 120 -6 9 81 148 115 185 15 17 33 41 41 55 17 34
48 152 42 166 -2 7 -21 2 -53 -13 -48 -23 -80 -22 -80 2 0 7 -22 30 -50 51
-31 24 -55 52 -65 77 -9 22 -36 71 -60 108 -47 73 -45 105 2 42 15 -21 36 -44
45 -51 10 -7 18 -20 18 -28 0 -7 17 -33 38 -55 20 -23 44 -60 53 -83 9 -22 23
-42 31 -44 17 -3 95 58 117 92 8 11 19 26 25 31 16 14 39 66 42 94 2 13 5 30
8 37 11 29 -56 50 -89 28 -29 -19 -44 -12 -77 37 -41 58 -37 79 7 40 37 -32
68 -40 81 -20 5 8 10 7 16 -4 11 -20 57 -13 104 15 64 37 102 6 122 -102 38
-192 30 -356 -25 -539 -55 -185 -140 -329 -278 -467 -165 -165 -327 -253 -580
-314 -62 -15 -294 -22 -355 -10 -25 4 -58 10 -75 13 -60 9 -181 50 -259 87
-147 70 -314 202 -347 275 l-19 40 27 22 c14 11 33 19 41 16 13 -5 14 6 9 74
-5 74 -4 83 19 116 29 43 29 53 5 93 -23 37 -107 124 -121 124 -5 0 -10 5 -10
12 0 7 -12 22 -27 34 -17 13 -27 32 -29 51 -2 37 -16 64 -64 128 -38 50 -60
107 -60 156 0 17 -8 30 -24 38 l-24 13 15 67 c20 91 78 232 128 315 53 87 137
195 151 196 6 0 17 7 24 15 7 8 23 15 36 15 26 0 78 46 69 61 -4 5 1 9 9 9 9
0 16 -5 16 -10 0 -6 12 -9 28 -6 15 2 32 5 38 5 7 1 15 12 18 26 3 13 20 40
37 60 19 21 26 35 18 35 -25 1 32 40 58 40 13 0 31 7 40 15 8 8 19 12 24 9 6
-3 18 1 27 9 9 8 38 21 65 30 41 14 47 14 47 1 0 -8 -21 -24 -47 -35 -53 -22
-115 -83 -106 -105 7 -18 6 -18 61 12 26 15 56 28 67 30 11 1 50 7 86 12 77
11 134 35 204 86 55 39 75 42 171 25z"/>
</g>
</svg>
